:version 1.10
:name ASF
:units
  mass 1
  length 1
  angle deg
:documentation
  ASF file generated by Kaydara
:root
  axis xyz
  order  tx ty tz rx ry rz
  position 0 0 0
  orientation 0 0 0
:bonedata
  begin
    id 1
    name RightUpLegDummy
    direction -0.718183 -0.695806 0.00816078
    length 4.904
    axis 0 0 0 xyz
  end
  begin
    id 2
    name RightUpLeg
    direction 3.53989e-006 -0.995788 0.0916897
    length 17.4976
    axis -3.49089 -0.000906621 0.000287158 xyz
    dof rx ry rz
  end
  begin
    id 3
    name RightLeg
    direction 0.00371093 -0.995096 -0.0988418
    length 16.5821
    axis 3.68512 0.0193738 -0.131023 xyz
    dof rx ry rz
  end
  begin
    id 4
    name RightFoot
    direction 0.000791514 -0.46099 0.887405
    length 3.77069
    axis 4.84075e-005 -0.120479 -0.188788 xyz
    dof rx ry rz
  end
  begin
    id 5
    name RightToes
    direction 0.00124746 -0.014064 0.9999
    length 3.85082
    axis 0.00048216 0.542163 -0.142577 xyz
    dof rx ry rz
  end
  begin
    id 6
    name SpineDummy
    direction 8.3039e-015 1 4.57515e-016
    length 4.6813
    axis 0 0 0 xyz
  end
  begin
    id 7
    name Spine
    direction -4.63632e-008 0.999988 0.00495137
    length 10.1015
    axis -0.00138897 0.000121419 3.25764e-006 xyz
    dof rx ry rz
  end
  begin
    id 8
    name Spine1
    direction 0 0 0
    length 0
    axis -0.00138896 0.000121452 2.39764e-006 xyz
    dof rx ry rz
  end
  begin
    id 9
    name HEadDummy
    direction -3.91456e-008 0.999999 0.00127422
    length 3.43865
    axis -0.00138896 0.000121452 2.39764e-006 xyz
  end
  begin
    id 10
    name HEad
    direction -0.0222688 0.980941 0.193023
    length 5.12695
    axis -0.00138895 0.000121452 2.39764e-006 xyz
    dof rx ry rz
  end
  begin
    id 11
    name LeftShoulder1Dummy
    direction 0.998891 -0.0402508 -0.0244456
    length 3.5433
    axis -0.00138896 0.000121452 2.39764e-006 xyz
  end
  begin
    id 12
    name LeftShoulder1
    direction 0.99951 -0.000327743 0.0313091
    length 4.05031
    axis -0.00138896 0.000121452 2.39764e-006 xyz
    dof rx ry rz
  end
  begin
    id 13
    name LeftArm
    direction 0.998561 -0.00100054 -0.0536182
    length 10.3537
    axis -23.1894 0.134784 0.96751 xyz
    dof rx ry rz
  end
  begin
    id 14
    name LeftForeArm
    direction 0.998903 0.00866434 0.046012
    length 8.70632
    axis -9.91835 -0.06569 -0.177792 xyz
    dof rx ry rz
  end
  begin
    id 15
    name LeftHand
    direction 0.992938 -0.0411636 0.11126
    length 5.32135
    axis -0.00960227 -0.00340091 0.185174 xyz
    dof rx ry rz
  end
  begin
    id 16
    name RightShoulderDummy
    direction -0.998891 -0.0402509 -0.0244414
    length 3.5433
    axis -0.00138896 0.000121452 2.39764e-006 xyz
  end
  begin
    id 17
    name RightShoulder
    direction -0.99951 -0.000327827 0.0313133
    length 4.05031
    axis 0.215806 0.000203644 -0.00680151 xyz
    dof rx ry rz
  end
  begin
    id 18
    name RightArm
    direction -0.998573 -0.000999583 -0.053403
    length 10.3947
    axis -23.2009 -0.134239 -0.9641 xyz
    dof rx ry rz
  end
  begin
    id 19
    name RightForeArm
    direction -0.998898 0.00868026 0.0461306
    length 8.68355
    axis -9.92322 0.0658061 0.178869 xyz
    dof rx ry rz
  end
  begin
    id 20
    name RightHand
    direction -0.992843 -0.0414603 0.112003
    length 5.28593
    axis -0.00960634 0.00330671 -0.185226 xyz
    dof rx ry rz
  end
  begin
    id 21
    name LeftUpLegDummy
    direction 0.718183 -0.695806 0.00816078
    length 4.904
    axis 0 0 0 xyz
  end
  begin
    id 22
    name LeftUpLeg
    direction -6.8115e-006 -0.995793 0.0916336
    length 17.4976
    axis -3.48766 0.00143441 -0.000523914 xyz
    dof rx ry rz
  end
  begin
    id 23
    name LeftLeg
    direction -0.00601357 -0.995091 -0.0987824
    length 16.5821
    axis 3.68177 -0.00654038 -0.00028478 xyz
    dof rx ry rz
  end
  begin
    id 24
    name LeftFoot
    direction -0.00417578 -0.460984 0.887399
    length 3.77069
    axis 1.87232e-006 4.66002e-005 -8.1837e-006 xyz
    dof rx ry rz
  end
  begin
    id 25
    name LeftToes
    direction 0.00818058 -0.00485161 0.999955
    length 3.85048
    axis 1.06246e-005 4.65855e-005 -8.18502e-006 xyz
    dof rx ry rz
  end
:hierarchy
  begin
    root RightUpLegDummy SpineDummy LeftUpLegDummy
    RightUpLegDummy RightUpLeg
    RightUpLeg RightLeg
    RightLeg RightFoot
    RightFoot RightToes
    SpineDummy Spine
    Spine Spine1
    Spine1 HEadDummy LeftShoulder1Dummy RightShoulderDummy
    HEadDummy HEad
    LeftShoulder1Dummy LeftShoulder1
    LeftShoulder1 LeftArm
    LeftArm LeftForeArm
    LeftForeArm LeftHand
    RightShoulderDummy RightShoulder
    RightShoulder RightArm
    RightArm RightForeArm
    RightForeArm RightHand
    LeftUpLegDummy LeftUpLeg
    LeftUpLeg LeftLeg
    LeftLeg LeftFoot
    LeftFoot LeftToes
  end

:SAMPLES-PER-SECOND 30
:FRAME-RANGE 1-1700
:FULLY-SPECIFIED
:DEGREES
1
root  -37.0415 38.9571 42.575 -165.752 -7.91827 -170.148
RightUpLeg  -18.1683 -5.14161 4.15711
RightLeg  19.3028 -2.76722 -1.27421
RightFoot  -13.7891 0.0970849 8.91653
RightToes  6.35937e-011 1.2921e-014 -6.02303e-014
Spine  12.1852 -0.0173191 -0.63314
Spine1  0.816143 0.131125 -1.86222
HEad  -9.84471 1.69554 -0.984907
LeftShoulder1  2.32161 -6.66024 -16.8634
LeftArm  -0.761865 -12.1268 -41.5158
LeftForeArm  43.7608 7.50042 -13.6594
LeftHand  -0.0618058 7.08438 -1.7908
RightShoulder  2.61865 6.1697 21.433
RightArm  6.70187 22.057 63.1273
RightForeArm  65.8848 -4.29027 15.1623
RightHand  0.00341565 -5.51423 -16.3466
LeftUpLeg  -33.6369 -0.943165 9.26624
LeftLeg  24.584 0.624277 0.648409
LeftFoot  -5.56251 -0.0631755 1.91569
LeftToes  -1.9349e-011 5.45182e-011 1.33515e-010
2
root  -37.1581 38.9284 42.4872 -166.036 -7.74127 -170.436
RightUpLeg  -18.0783 -5.90693 4.48838
RightLeg  18.6014 -2.64848 -1.11676
RightFoot  -14.084 0.122145 9.08528
RightToes  6.35937e-011 1.2921e-014 -6.02303e-014
Spine  11.9989 -0.0605229 -0.345858
Spine1  0.98451 0.189648 -2.17343
HEad  -5.02207 6.80291 -3.30927
LeftShoulder1  2.3665 -6.79211 -17.0161
LeftArm  -0.645787 -12.2731 -41.5247
LeftForeArm  43.372 7.49927 -13.7129
LeftHand  -0.0573293 6.89354 -1.94627
RightShoulder  2.59606 6.21418 21.0409
RightArm  12.3903 22.2513 64.2757
RightForeArm  61.5616 -0.288066 15.7512
RightHand  -0.0249559 -5.31002 -16.1377
LeftUpLeg  -33.2599 -0.874627 8.70687
LeftLeg  24.9544 0.592827 0.638283
LeftFoot  -5.94337 -0.0601507 2.03542
LeftToes  -1.9349e-011 5.45182e-011 1.33515e-010
3
root  -37.2469 38.8988 42.41 -166.343 -7.57664 -170.767
RightUpLeg  -17.9382 -6.48591 4.68128
RightLeg  17.9964 -3.16857 -1.11451
RightFoot  -14.2602 0.133237 9.01802
RightToes  6.35937e-011 1.2921e-014 -6.02303e-014
Spine  11.7895 -0.0415011 -0.140906
Spine1  1.03036 0.22791 -2.20901
HEad  0.851966 13.5522 -5.55225
LeftShoulder1  2.44444 -6.96609 -17.4093
LeftArm  -0.133582 -12.8405 -41.4176
LeftForeArm  43.143 7.46108 -13.8492
LeftHand  -0.0544688 6.76359 -1.97752
RightShoulder  2.56869 6.19065 20.8038
RightArm  21.3851 22.2322 65.2066
RightForeArm  54.0759 4.81875 15.5893
RightHand  -0.0334014 -5.24799 -16.008
LeftUpLeg  -32.8731 -0.873014 8.16174
LeftLeg  25.2893 0.65265 0.673862
LeftFoot  -6.20455 -0.0633349 2.24499
LeftToes  -1.9349e-011 5.45182e-011 1.33515e-010
4
root  -37.309 38.8873 42.3493 -166.709 -7.34094 -171.205
RightUpLeg  -17.6508 -6.78153 4.67973
RightLeg  17.4341 -4.25996 -1.26032
RightFoot  -14.3561 0.134617 8.80847
RightToes  6.35937e-011 1.2921e-014 -6.02303e-014
Spine  11.4985 -0.0600268 0.037803
Spine1  1.25462 0.270635 -2.41458
HEad  7.24577 21.4112 -6.87425
LeftShoulder1  2.48962 -7.0269 -17.7318
LeftArm  0.183801 -13.8446 -41.3749
LeftForeArm  43.0207 7.44214 -13.9113
LeftHand  -0.0531901 6.69967 -1.94511
RightShoulder  2.57208 6.25187 20.6566
RightArm  31.9833 21.9644 66.0015
RightForeArm  45.0039 10.454 13.9021
RightHand  -0.0459288 -5.15422 -15.842
LeftUpLeg  -32.2837 -1.00529 7.58646
LeftLeg  25.3635 0.84935 0.776651
LeftFoot  -6.41296 -0.0609564 2.31385
LeftToes  -1.9349e-011 5.45182e-011 1.33515e-010
5
root  -37.3395 38.8784 42.3103 -167.006 -7.14674 -171.584
RightUpLeg  -17.4335 -7.00358 4.69416
RightLeg  17.0503 -5.45247 -1.42827
RightFoot  -14.2486 0.11173 8.20603
RightToes  6.35937e-011 1.2921e-014 -6.02303e-014
Spine  11.1381 -0.0509417 0.272821
Spine1  1.51292 0.313913 -2.47131
HEad  14.6805 29.491 -7.03806
LeftShoulder1  2.55492 -7.17982 -18.0259
LeftArm  -0.103236 -14.9642 -41.3823
LeftForeArm  42.4778 7.50507 -13.8045
LeftHand  -0.0526954 6.64491 -1.56928
RightShoulder  2.55849 6.26814 20.4551
RightArm  43.5271 21.4782 66.5386
RightForeArm  34.2889 16.0741 10.3877
RightHand  -0.0463205 -5.14758 -15.4244
LeftUpLeg  -31.8044 -1.18122 7.15216
LeftLeg  25.3734 1.0621 0.886711
LeftFoot  -6.52016 -0.0553766 2.28323
LeftToes  -1.9349e-011 5.45182e-011 1.33515e-010
6
root  -37.3397 38.8823 42.2853 -167.269 -7.00891 -172.046
RightUpLeg  -17.2382 -7.14947 4.59819
RightLeg  16.8943 -6.34038 -1.58679
RightFoot  -13.946 0.0822492 7.77525
RightToes  6.35937e-011 1.2921e-014 -6.02303e-014
Spine  10.744 -0.0823618 0.426254
Spine1  2.03831 0.329315 -2.59075
HEad  22.0702 36.5582 -5.74551
LeftShoulder1  2.5924 -7.31587 -18.07
LeftArm  -0.537069 -16.2723 -41.4884
LeftForeArm  42.2524 7.58101 -13.5801
LeftHand  -0.0486108 6.44195 -1.52528
RightShoulder  2.54852 6.2937 20.267
RightArm  53.1278 21.0999 66.7288
RightForeArm  24.6233 20.6375 6.0755
RightHand  -0.0555891 -5.07233 -15.1331
LeftUpLeg  -31.2691 -1.38594 6.67071
LeftLeg  25.1411 1.30447 1.00479
LeftFoot  -6.49776 -0.0638539 2.43495
LeftToes  -1.9349e-011 5.45182e-011 1.33515e-010
7
root  -37.305 38.8874 42.2772 -167.44 -6.80173 -172.514
RightUpLeg  -17.0261 -7.07846 4.44003
RightLeg  16.6619 -6.84348 -1.62514
RightFoot  -13.2552 0.039657 7.75632
RightToes  6.35937e-011 1.2921e-014 -6.02303e-014
Spine  10.341 -0.0731444 0.488122
Spine1  2.54374 0.378796 -2.67964
HEad  27.7669 42.065 -4.24615
LeftShoulder1  2.60146 -7.37883 -18.006
LeftArm  -0.523403 -17.7314 -41.6295
LeftForeArm  41.6122 7.16 -13.5306
LeftHand  -0.0455832 6.27666 -1.20352
RightShoulder  2.56284 6.36027 20.2306
RightArm  54.8367 20.8307 66.383
RightForeArm  22.7028 24.1913 3.98143
RightHand  -0.0805058 -4.85304 -14.3196
LeftUpLeg  -30.838 -1.48926 6.23416
LeftLeg  24.8692 1.51262 1.10181
LeftFoot  -6.42203 -0.0649814 2.41309
LeftToes  -1.9349e-011 5.45182e-011 1.33515e-010
8
root  -37.2543 38.9018 42.2866 -167.56 -6.60143 -173.028
RightUpLeg  -16.9696 -7.23587 4.22006
RightLeg  16.7408 -6.90903 -1.54776
RightFoot  -12.488 -0.0291011 5.56043
RightToes  6.35937e-011 1.2921e-014 -6.02303e-014
Spine  10.1678 -0.00519398 0.502801
Spine1  2.79055 0.406758 -2.53784
HEad  33.4276 45.6429 -2.5744
LeftShoulder1  2.60728 -7.4389 -17.9171
LeftArm  -1.02337 -19.1249 -41.8959
LeftForeArm  41.1274 6.21586 -13.3773
LeftHand  -0.0417057 6.07215 -1.11658
RightShoulder  2.55602 6.39271 20.0598
RightArm  51.4917 20.8027 65.7899
RightForeArm  25.7002 27.4544 4.52716
RightHand  -0.0973677 -4.67829 -13.5365
LeftUpLeg  -30.4296 -1.60944 5.77589
LeftLeg  24.4673 1.69664 1.17877
LeftFoot  -6.23062 -0.0666712 2.33473
LeftToes  -1.9349e-011 5.45182e-011 1.33515e-010
9
root  -37.1791 38.9133 42.3173 -167.557 -6.62885 -173.321
RightUpLeg  -16.9399 -6.17555 3.91165
RightLeg  16.5935 -8.2738 -1.8293
RightFoot  -12.0394 -0.048876 5.3914
RightToes  6.35937e-011 1.2921e-014 -6.02303e-014
Spine  9.90546 -0.0798644 0.933466
Spine1  3.1989 0.376541 -2.69598
HEad  37.1151 48.1088 -1.59583
LeftShoulder1  2.59259 -7.52285 -17.566
LeftArm  -1.68488 -20.5027 -42.1687
LeftForeArm  40.6913 5.19385 -13.1127
LeftHand  -0.0331948 5.66862 -1.90842
RightShoulder  2.54555 6.40357 19.9118
RightArm  48.507 20.8136 65.4324
RightForeArm  28.4106 30.6429 5.10655
RightHand  -0.117264 -4.45875 -12.8479
LeftUpLeg  -30.3187 -1.73243 5.60801
LeftLeg  24.1556 1.74224 1.18845
LeftFoot  -6.01489 -0.0653909 2.18467
LeftToes  -1.9349e-011 5.45182e-011 1.33515e-010
10
root  -37.0845 38.928 42.3599 -167.534 -6.62698 -173.531
RightUpLeg  -16.9716 -5.98029 3.72834
RightLeg  16.4639 -8.5811 -1.71812
RightFoot  -11.6905 -0.0627927 5.4416
RightToes  6.35937e-011 1.2921e-014 -6.02303e-014
Spine  9.83784 -0.0936475 1.21816
Spine1  3.28421 0.327243 -2.54911
HEad  39.1726 49.548 -0.964652
LeftShoulder1  2.62333 -7.67802 -17.5025
LeftArm  -2.09798 -21.7908 -42.3279
LeftForeArm  40.4639 4.48307 -12.9326
LeftHand  -0.0320583 5.57277 -1.67292
RightShoulder  2.53209 6.39589 19.7845
RightArm  45.6084 20.5992 64.9714
RightForeArm  31.0789 34.1948 5.82154
RightHand  -0.109091 -4.4692 -11.8672
LeftUpLeg  -30.2429 -1.82959 5.5609
LeftLeg  23.8219 1.80968 1.20738
LeftFoot  -5.77234 -0.0661546 2.07515
LeftToes  -1.9349e-011 5.45182e-011 1.33515e-010
11
root  -36.9636 38.9586 42.4113 -167.456 -6.44431 -173.68
RightUpLeg  -17.0296 -6.19971 3.66535
RightLeg  16.1463 -8.24434 -1.35444
RightFoot  -11.3286 -0.0774553 4.86158
RightToes  6.35937e-011 1.2921e-014 -6.02303e-014
Spine  9.80242 -0.0952195 1.35074
Spine1  3.31723 0.324853 -2.51154
HEad  40.6537 50.3235 -0.324446
LeftShoulder1  2.60947 -7.77416 -17.1413
LeftArm  -2.50563 -22.7961 -42.7524
LeftForeArm  40.3337 3.95153 -12.72
LeftHand  -0.0341903 5.65538 -1.01797
RightShoulder  2.52485 6.41468 19.65
RightArm  43.699 20.6275 64.7899
RightForeArm  32.5446 37.3405 6.56279
RightHand  -0.109931 -4.4029 -11.1324
LeftUpLeg  -30.1482 -1.76009 5.60566
LeftLeg  23.3508 1.88194 1.22252
LeftFoot  -5.47237 -0.0581387 1.77739
LeftToes  -1.9349e-011 5.45182e-011 1.33515e-010
